<svg id="svg" version="1.1" width="590" height="590" xmlns="http://www.w3.org/2000/svg"><path d="M56.500 56.916 C 43.379 57.662,40.028 58.802,35.646 64.009 C 29.611 71.181,29.654 81.398,35.748 88.143 C 37.729 90.335,40.590 92.771,42.107 93.555 C 48.161 96.686,62.570 96.518,125.876 92.582 C 143.024 91.516,152.415 91.385,161.122 92.090 C 169.115 92.737,181.893 92.680,200.246 91.914 C 215.236 91.288,261.809 90.604,303.743 90.394 C 377.859 90.023,380.230 89.952,388.743 87.849 C 395.595 86.157,401.401 85.602,415.427 85.298 C 425.286 85.085,435.411 85.345,437.927 85.877 C 444.022 87.167,447.495 86.351,451.049 82.797 C 456.522 77.324,454.447 68.084,447.056 65.023 C 443.820 63.683,440.463 63.983,432.362 66.336 C 429.537 67.157,421.500 68.625,414.503 69.598 C 403.656 71.106,400.950 71.180,396.141 70.095 C 393.038 69.396,388.475 68.379,386.000 67.835 C 383.339 67.250,351.465 66.718,308.000 66.532 C 232.663 66.210,180.433 64.735,176.000 62.804 C 167.913 59.283,85.932 55.243,56.500 56.916 M119.071 102.716 C 110.389 107.232,109.028 116.392,115.232 128.557 C 118.959 135.865,120.086 137.029,136.446 150.459 C 141.778 154.837,146.376 158.799,146.663 159.263 C 146.950 159.727,145.793 161.437,144.092 163.062 C 138.356 168.544,140.375 176.619,148.527 180.794 C 151.065 182.093,164.506 184.000,171.131 184.000 C 175.212 184.000,176.818 184.563,179.981 187.105 C 182.106 188.812,184.382 191.507,185.039 193.094 C 185.696 194.680,187.956 197.534,190.060 199.435 C 201.670 209.924,218.871 203.927,222.107 188.263 L 223.297 182.500 227.898 182.500 C 230.429 182.500,237.912 182.172,244.528 181.770 L 256.555 181.041 262.528 189.088 C 265.812 193.514,270.369 199.468,272.654 202.318 C 274.939 205.168,278.021 210.072,279.505 213.215 C 286.916 228.923,304.071 233.901,315.676 223.711 C 320.225 219.717,322.001 215.521,321.995 208.782 C 321.988 202.040,319.353 197.606,311.922 191.833 C 308.854 189.450,304.870 185.813,303.069 183.750 L 299.793 180.000 302.646 180.060 C 304.216 180.092,307.750 180.564,310.500 181.107 C 313.250 181.650,327.650 182.517,342.500 183.033 C 387.363 184.591,411.419 185.727,413.000 186.360 C 415.887 187.516,438.112 189.992,450.251 190.509 C 465.006 191.138,490.581 194.775,507.000 198.580 C 514.717 200.368,537.089 201.872,567.750 202.664 L 590.000 203.239 590.000 196.197 L 590.000 189.156 571.250 188.694 C 560.938 188.440,542.110 187.734,529.411 187.125 C 508.665 186.131,505.315 185.720,496.411 183.084 C 489.361 180.996,483.324 179.973,475.500 179.537 C 465.948 179.005,446.354 176.755,439.133 175.360 C 436.880 174.925,436.930 174.820,440.186 173.160 C 443.554 171.443,456.944 161.212,464.229 154.788 C 469.054 150.535,480.636 134.790,483.199 129.000 C 485.975 122.731,485.312 111.481,482.009 108.806 C 479.355 106.657,476.107 106.511,471.718 108.343 C 469.948 109.082,466.700 110.016,464.500 110.418 C 459.707 111.296,449.820 116.637,444.020 121.483 C 441.712 123.412,437.115 126.680,433.805 128.745 C 423.657 135.077,415.942 141.916,413.918 146.373 C 409.983 155.039,412.679 165.582,420.228 171.050 L 424.190 173.921 410.345 173.449 C 377.113 172.316,370.763 171.891,358.000 169.942 C 350.575 168.808,339.325 167.716,333.000 167.515 C 326.675 167.314,317.675 166.442,313.000 165.576 C 308.325 164.711,300.675 163.995,296.000 163.986 C 291.325 163.977,287.014 163.639,286.419 163.235 C 285.824 162.831,283.210 159.221,280.610 155.213 C 274.320 145.518,266.359 137.684,260.537 135.461 C 256.027 133.739,255.726 133.743,251.242 135.602 C 247.546 137.134,246.125 138.460,244.225 142.151 C 241.898 146.673,241.876 146.956,243.261 154.390 L 244.679 162.000 237.089 161.983 C 232.915 161.973,226.350 161.298,222.500 160.483 C 218.651 159.667,211.845 159.000,207.376 159.000 L 199.252 159.000 189.376 151.469 C 183.944 147.327,177.475 142.332,175.000 140.369 C 169.693 136.159,150.838 119.181,143.000 111.554 C 133.860 102.660,125.275 99.490,119.071 102.716 M107.500 167.718 C 103.852 168.604,98.808 173.211,96.917 177.384 C 95.285 180.987,95.115 183.307,95.550 196.000 C 96.052 210.617,97.384 224.125,99.051 231.500 C 99.548 233.700,100.141 240.908,100.368 247.518 C 100.862 261.901,102.283 267.216,106.857 271.790 C 118.180 283.113,136.005 278.227,140.169 262.658 C 141.216 258.744,141.063 256.448,139.046 245.813 C 135.296 226.033,134.894 222.729,133.502 200.278 C 132.880 190.243,130.192 182.688,124.832 175.906 C 119.486 169.144,113.423 166.279,107.500 167.718 M584.000 219.096 C 580.975 220.108,573.100 222.113,566.500 223.552 C 559.900 224.991,550.034 227.480,544.575 229.084 C 539.117 230.688,533.492 232.011,532.075 232.025 C 530.659 232.039,523.650 234.095,516.500 236.594 C 504.002 240.962,499.942 241.847,482.627 243.973 C 472.845 245.175,467.511 247.702,461.350 254.053 C 458.711 256.774,456.202 259.000,455.776 259.000 C 455.349 259.000,455.000 257.853,455.000 256.450 C 455.000 249.275,447.779 242.829,439.032 242.196 C 433.712 241.811,432.443 242.178,422.821 246.889 C 417.080 249.700,411.453 252.000,410.316 252.000 C 409.180 252.000,404.931 253.510,400.875 255.355 C 396.819 257.199,390.630 259.212,387.123 259.827 C 383.615 260.442,378.890 261.811,376.623 262.869 C 374.355 263.927,368.225 265.329,363.000 265.986 C 336.163 269.356,332.209 269.987,328.713 271.461 C 322.195 274.209,309.039 275.961,294.500 276.017 C 285.889 276.050,278.190 276.629,274.500 277.520 C 271.200 278.317,265.260 278.976,261.299 278.984 C 257.339 278.993,251.844 279.484,249.088 280.075 C 246.332 280.666,243.047 281.003,241.789 280.825 C 239.754 280.536,240.076 280.056,244.688 276.500 C 248.307 273.709,250.964 270.467,253.479 265.774 C 255.736 261.562,258.951 257.474,262.081 254.834 C 270.795 247.487,275.501 234.015,271.399 228.159 C 268.788 224.431,265.525 223.750,258.677 225.504 C 250.720 227.543,246.748 230.726,243.442 237.714 C 241.759 241.272,238.369 245.727,234.498 249.471 C 230.119 253.705,228.046 256.542,227.534 259.000 C 227.132 260.925,225.649 265.116,224.237 268.314 C 222.158 273.021,220.891 274.519,217.585 276.181 C 215.338 277.309,212.825 278.799,212.000 279.490 C 208.248 282.635,202.408 283.365,180.500 283.433 C 159.586 283.497,158.268 283.614,153.794 285.818 C 146.810 289.258,143.000 294.052,143.000 299.398 C 143.000 303.288,143.495 304.189,147.882 308.293 C 154.080 314.090,158.520 315.366,172.750 315.441 C 178.937 315.473,184.000 315.779,184.000 316.119 C 184.000 317.896,175.368 327.200,171.246 329.867 C 168.636 331.556,164.344 335.149,161.709 337.852 C 158.865 340.770,155.683 343.013,153.875 343.375 C 149.250 344.300,145.367 347.555,142.411 352.986 C 140.719 356.095,138.756 358.238,137.059 358.830 C 135.585 359.343,133.731 360.392,132.940 361.159 C 131.121 362.922,115.705 370.457,110.829 371.967 C 95.402 376.742,89.363 394.371,99.284 405.670 C 105.432 412.673,113.792 414.638,121.860 410.978 C 126.973 408.657,155.694 380.079,157.203 375.810 C 157.726 374.331,159.720 371.926,161.634 370.466 C 163.548 369.006,166.403 365.740,167.979 363.209 C 170.220 359.608,172.222 357.941,177.172 355.553 C 182.514 352.976,183.925 351.721,186.227 347.500 C 187.726 344.750,188.964 341.743,188.977 340.817 C 189.002 338.980,195.647 333.189,200.630 330.661 C 206.355 327.756,209.820 324.057,211.471 319.088 C 212.357 316.419,213.852 313.574,214.791 312.766 C 216.512 311.286,232.520 308.585,234.031 309.519 C 234.478 309.795,239.041 308.610,244.172 306.884 C 250.594 304.725,255.356 303.759,259.458 303.783 C 262.735 303.802,267.010 303.204,268.958 302.454 C 274.579 300.290,286.507 297.974,299.500 296.523 C 306.100 295.787,315.100 294.499,319.500 293.661 C 323.900 292.823,329.975 291.840,333.000 291.476 C 336.025 291.111,343.149 289.731,348.832 288.408 C 354.541 287.079,360.281 286.283,361.659 286.629 C 365.006 287.469,388.238 285.204,394.500 283.427 C 404.442 280.606,428.201 277.069,437.539 277.021 C 439.760 277.009,443.342 276.100,445.500 275.000 C 447.658 273.900,449.490 273.000,449.572 273.000 C 449.654 273.000,449.999 275.348,450.339 278.217 C 451.981 292.081,466.898 300.118,479.056 293.689 C 481.586 292.351,485.359 288.893,488.016 285.479 C 491.588 280.889,493.814 279.083,498.053 277.337 C 501.049 276.103,504.485 275.072,505.688 275.047 C 508.418 274.988,522.658 270.598,530.030 267.541 C 533.071 266.280,538.021 264.931,541.030 264.544 C 546.698 263.815,553.199 262.218,563.500 259.025 C 566.800 258.002,571.279 256.865,573.453 256.499 C 575.628 256.133,579.003 255.034,580.953 254.058 C 582.904 253.082,585.737 251.986,587.250 251.623 L 590.000 250.962 590.000 233.981 C 590.000 224.641,589.888 217.058,589.750 217.128 C 589.612 217.199,587.025 218.084,584.000 219.096 M392.500 325.978 C 388.650 327.061,382.994 327.959,379.932 327.974 C 376.869 327.988,372.141 328.660,369.426 329.466 C 364.046 331.064,322.731 331.950,309.500 330.752 C 303.042 330.167,291.221 329.438,250.000 327.086 C 234.087 326.177,224.668 326.855,218.752 329.334 C 211.429 332.403,204.995 340.534,205.004 346.710 C 205.013 353.640,214.471 361.093,225.968 363.231 C 232.234 364.396,264.465 363.266,296.000 360.774 C 307.856 359.837,332.647 359.371,384.000 359.120 C 387.246 359.104,389.557 359.827,392.294 361.716 C 395.879 364.189,410.932 368.132,422.773 369.700 C 425.123 370.011,427.244 370.587,427.487 370.979 C 428.194 372.122,422.626 382.156,417.718 388.586 C 415.235 391.839,410.840 396.525,407.951 399.000 C 405.062 401.475,400.404 405.564,397.599 408.086 C 394.795 410.609,390.250 414.189,387.500 416.043 C 384.750 417.897,380.120 421.346,377.211 423.707 C 374.302 426.068,371.517 428.000,371.022 428.000 C 370.527 428.000,368.160 429.688,365.762 431.750 C 363.364 433.813,358.499 436.790,354.951 438.366 C 344.517 443.002,335.815 446.685,331.000 448.503 C 328.525 449.437,325.022 450.831,323.216 451.601 C 318.691 453.529,317.974 453.418,312.791 449.985 C 310.288 448.327,305.373 446.042,301.870 444.907 C 294.771 442.607,284.001 437.020,279.715 433.413 C 278.172 432.115,275.128 430.573,272.952 429.987 C 270.775 429.401,266.183 427.420,262.747 425.585 C 259.311 423.750,253.125 420.451,249.000 418.254 C 239.224 413.046,232.656 411.477,227.005 412.999 C 219.256 415.085,215.767 421.367,219.443 426.615 C 222.028 430.306,244.403 447.707,248.089 448.894 C 250.062 449.529,253.161 451.144,254.975 452.482 C 256.789 453.820,260.799 455.430,263.887 456.060 C 269.138 457.131,272.879 458.431,284.000 463.050 C 286.475 464.077,289.400 465.090,290.500 465.299 C 292.097 465.603,291.896 465.835,289.500 466.449 C 287.850 466.872,283.350 468.334,279.500 469.696 C 269.550 473.219,256.323 477.000,253.953 477.000 C 252.844 477.000,249.364 477.865,246.218 478.923 C 243.073 479.981,235.777 481.548,230.004 482.407 C 221.717 483.638,218.687 484.549,215.607 486.733 C 205.888 493.627,205.292 506.781,214.338 514.724 C 219.603 519.347,224.660 520.459,231.936 518.595 C 235.161 517.769,239.307 516.174,241.149 515.050 C 242.992 513.927,245.243 513.006,246.151 513.004 C 247.059 513.002,250.209 511.879,253.151 510.510 C 256.093 509.140,259.525 508.015,260.777 508.010 C 262.977 508.000,271.349 505.501,287.000 500.182 C 291.125 498.780,296.525 497.308,299.000 496.912 C 304.360 496.053,316.882 491.412,319.000 489.499 C 320.258 488.363,328.928 485.499,337.650 483.338 C 338.926 483.022,343.602 484.400,349.150 486.728 C 359.647 491.131,363.143 492.217,374.244 494.524 C 378.503 495.409,387.201 497.904,393.573 500.067 C 399.946 502.230,406.033 504.000,407.100 504.000 C 409.341 504.000,415.848 507.904,421.209 512.466 C 428.016 518.257,441.177 520.802,475.500 522.965 C 483.037 523.440,488.547 524.392,493.000 525.987 C 502.249 529.300,508.978 529.098,514.316 525.346 C 520.016 521.339,522.963 515.856,522.984 509.218 C 523.005 502.483,521.230 498.287,516.666 494.279 C 511.675 489.898,508.152 489.142,488.000 488.132 C 475.771 487.519,469.334 486.765,466.628 485.628 C 464.498 484.732,461.558 484.000,460.094 484.000 C 458.631 484.000,452.723 482.351,446.967 480.336 C 436.766 476.766,436.005 476.654,417.000 475.947 C 397.781 475.232,390.830 474.415,380.000 471.599 C 376.975 470.812,373.262 470.408,371.750 470.701 C 367.951 471.436,368.311 470.555,372.650 468.496 C 378.566 465.689,398.587 452.671,404.351 447.885 C 406.083 446.446,409.300 444.348,411.500 443.222 C 413.700 442.096,417.075 439.521,419.000 437.499 C 420.925 435.476,424.872 432.237,427.771 430.300 C 441.071 421.413,465.454 392.786,469.590 381.204 C 471.727 375.218,471.396 359.449,469.030 354.566 C 466.290 348.908,461.182 343.943,453.040 339.024 C 447.559 335.712,444.551 334.618,438.796 333.841 C 429.615 332.602,417.756 329.427,412.725 326.860 C 407.059 323.969,400.636 323.689,392.500 325.978 " stroke="none" fill="black" fill-rule="evenodd"/></svg>